<svg width="390" height="5109" viewBox="0 0 390 5109" fill="none" xmlns="http://www.w3.org/2000/svg">
<g clip-path="url(#clip0_13_78)">
<path d="M0 0H390V5109H0V0Z" fill="#302C42"/>
<path d="M448 77C373.214 89.4693 230.842 160.354 259.641 344.137C288.439 527.92 165.879 617.289 101 639" stroke="url(#paint0_linear_13_78)" stroke-width="6"/>
<path d="M454 287.11C246.803 276.897 -166.669 332.776 -162.975 638" stroke="url(#paint1_linear_13_78)" stroke-width="6"/>
<path d="M23.1617 -65C20.4117 52.5736 51.6736 298.574 198.721 341.986C345.769 385.397 348.871 561.417 332.041 644" stroke="url(#paint2_linear_13_78)" stroke-width="6"/>
<path d="M121.162 623V613.2H125.95C127.182 613.2 128.106 613.433 128.722 613.9C129.347 614.367 129.66 614.983 129.66 615.748C129.66 616.261 129.534 616.709 129.282 617.092C129.03 617.465 128.685 617.755 128.246 617.96C127.807 618.165 127.303 618.268 126.734 618.268L127 617.694C127.616 617.694 128.162 617.797 128.638 618.002C129.114 618.198 129.483 618.492 129.744 618.884C130.015 619.276 130.15 619.757 130.15 620.326C130.15 621.166 129.819 621.824 129.156 622.3C128.493 622.767 127.518 623 126.23 623H121.162ZM123.416 621.292H126.062C126.65 621.292 127.093 621.199 127.392 621.012C127.7 620.816 127.854 620.508 127.854 620.088C127.854 619.677 127.7 619.374 127.392 619.178C127.093 618.973 126.65 618.87 126.062 618.87H123.248V617.218H125.67C126.221 617.218 126.641 617.125 126.93 616.938C127.229 616.742 127.378 616.448 127.378 616.056C127.378 615.673 127.229 615.389 126.93 615.202C126.641 615.006 126.221 614.908 125.67 614.908H123.416V621.292ZM136.221 623.168C134.83 623.168 133.743 622.781 132.959 622.006C132.175 621.231 131.783 620.125 131.783 618.688V613.2H134.051V618.604C134.051 619.537 134.242 620.209 134.625 620.62C135.008 621.031 135.544 621.236 136.235 621.236C136.926 621.236 137.462 621.031 137.845 620.62C138.228 620.209 138.419 619.537 138.419 618.604V613.2H140.659V618.688C140.659 620.125 140.267 621.231 139.483 622.006C138.699 622.781 137.612 623.168 136.221 623.168ZM142.9 623V613.2H145.168V623H142.9ZM147.494 623V613.2H149.762V621.152H154.676V623H147.494ZM155.943 623V613.2H160.395C161.459 613.2 162.397 613.405 163.209 613.816C164.021 614.217 164.656 614.782 165.113 615.51C165.571 616.238 165.799 617.101 165.799 618.1C165.799 619.089 165.571 619.953 165.113 620.69C164.656 621.418 164.021 621.987 163.209 622.398C162.397 622.799 161.459 623 160.395 623H155.943ZM158.211 621.138H160.283C160.937 621.138 161.501 621.017 161.977 620.774C162.463 620.522 162.836 620.167 163.097 619.71C163.368 619.253 163.503 618.716 163.503 618.1C163.503 617.475 163.368 616.938 163.097 616.49C162.836 616.033 162.463 615.683 161.977 615.44C161.501 615.188 160.937 615.062 160.283 615.062H158.211V621.138ZM173.91 623V618.996L174.428 620.368L170.116 613.2H172.525L175.829 618.702H174.443L177.761 613.2H179.987L175.675 620.368L176.179 618.996V623H173.91ZM185.272 623.168C184.497 623.168 183.778 623.042 183.116 622.79C182.462 622.538 181.893 622.183 181.408 621.726C180.932 621.269 180.558 620.732 180.288 620.116C180.026 619.5 179.896 618.828 179.896 618.1C179.896 617.372 180.026 616.7 180.288 616.084C180.558 615.468 180.936 614.931 181.422 614.474C181.907 614.017 182.476 613.662 183.13 613.41C183.783 613.158 184.492 613.032 185.258 613.032C186.032 613.032 186.742 613.158 187.386 613.41C188.039 613.662 188.604 614.017 189.08 614.474C189.565 614.931 189.943 615.468 190.214 616.084C190.484 616.691 190.62 617.363 190.62 618.1C190.62 618.828 190.484 619.505 190.214 620.13C189.943 620.746 189.565 621.283 189.08 621.74C188.604 622.188 188.039 622.538 187.386 622.79C186.742 623.042 186.037 623.168 185.272 623.168ZM185.258 621.236C185.696 621.236 186.098 621.161 186.462 621.012C186.835 620.863 187.162 620.648 187.442 620.368C187.722 620.088 187.936 619.757 188.086 619.374C188.244 618.991 188.324 618.567 188.324 618.1C188.324 617.633 188.244 617.209 188.086 616.826C187.936 616.443 187.722 616.112 187.442 615.832C187.171 615.552 186.849 615.337 186.476 615.188C186.102 615.039 185.696 614.964 185.258 614.964C184.819 614.964 184.413 615.039 184.04 615.188C183.676 615.337 183.354 615.552 183.074 615.832C182.794 616.112 182.574 616.443 182.416 616.826C182.266 617.209 182.192 617.633 182.192 618.1C182.192 618.557 182.266 618.982 182.416 619.374C182.574 619.757 182.789 620.088 183.06 620.368C183.34 620.648 183.666 620.863 184.04 621.012C184.413 621.161 184.819 621.236 185.258 621.236ZM196.678 623.168C195.287 623.168 194.2 622.781 193.416 622.006C192.632 621.231 192.24 620.125 192.24 618.688V613.2H194.508V618.604C194.508 619.537 194.699 620.209 195.082 620.62C195.465 621.031 196.001 621.236 196.692 621.236C197.383 621.236 197.919 621.031 198.302 620.62C198.685 620.209 198.876 619.537 198.876 618.604V613.2H201.116V618.688C201.116 620.125 200.724 621.231 199.94 622.006C199.156 622.781 198.069 623.168 196.678 623.168ZM203.357 623V613.2H207.599C208.477 613.2 209.233 613.345 209.867 613.634C210.502 613.914 210.992 614.32 211.337 614.852C211.683 615.384 211.855 616.019 211.855 616.756C211.855 617.484 211.683 618.114 211.337 618.646C210.992 619.169 210.502 619.57 209.867 619.85C209.233 620.13 208.477 620.27 207.599 620.27H204.617L205.625 619.276V623H203.357ZM209.587 623L207.137 619.444H209.559L212.037 623H209.587ZM205.625 619.528L204.617 618.464H207.473C208.173 618.464 208.696 618.315 209.041 618.016C209.387 617.708 209.559 617.288 209.559 616.756C209.559 616.215 209.387 615.795 209.041 615.496C208.696 615.197 208.173 615.048 207.473 615.048H204.617L205.625 613.97V619.528ZM219.969 623L216.763 613.2H219.115L221.901 621.88H220.725L223.637 613.2H225.737L228.537 621.88H227.403L230.259 613.2H232.429L229.223 623H226.787L224.309 615.384H224.953L222.405 623H219.969ZM238.346 623.168C237.571 623.168 236.852 623.042 236.19 622.79C235.536 622.538 234.967 622.183 234.482 621.726C234.006 621.269 233.632 620.732 233.362 620.116C233.1 619.5 232.97 618.828 232.97 618.1C232.97 617.372 233.1 616.7 233.362 616.084C233.632 615.468 234.01 614.931 234.496 614.474C234.981 614.017 235.55 613.662 236.204 613.41C236.857 613.158 237.566 613.032 238.332 613.032C239.106 613.032 239.816 613.158 240.46 613.41C241.113 613.662 241.678 614.017 242.154 614.474C242.639 614.931 243.017 615.468 243.288 616.084C243.558 616.691 243.694 617.363 243.694 618.1C243.694 618.828 243.558 619.505 243.288 620.13C243.017 620.746 242.639 621.283 242.154 621.74C241.678 622.188 241.113 622.538 240.46 622.79C239.816 623.042 239.111 623.168 238.346 623.168ZM238.332 621.236C238.77 621.236 239.172 621.161 239.536 621.012C239.909 620.863 240.236 620.648 240.516 620.368C240.796 620.088 241.01 619.757 241.16 619.374C241.318 618.991 241.398 618.567 241.398 618.1C241.398 617.633 241.318 617.209 241.16 616.826C241.01 616.443 240.796 616.112 240.516 615.832C240.245 615.552 239.923 615.337 239.55 615.188C239.176 615.039 238.77 614.964 238.332 614.964C237.893 614.964 237.487 615.039 237.114 615.188C236.75 615.337 236.428 615.552 236.148 615.832C235.868 616.112 235.648 616.443 235.49 616.826C235.34 617.209 235.266 617.633 235.266 618.1C235.266 618.557 235.34 618.982 235.49 619.374C235.648 619.757 235.863 620.088 236.134 620.368C236.414 620.648 236.74 620.863 237.114 621.012C237.487 621.161 237.893 621.236 238.332 621.236ZM245.398 623V613.2H249.64C250.518 613.2 251.274 613.345 251.908 613.634C252.543 613.914 253.033 614.32 253.378 614.852C253.724 615.384 253.896 616.019 253.896 616.756C253.896 617.484 253.724 618.114 253.378 618.646C253.033 619.169 252.543 619.57 251.908 619.85C251.274 620.13 250.518 620.27 249.64 620.27H246.658L247.666 619.276V623H245.398ZM251.628 623L249.178 619.444H251.6L254.078 623H251.628ZM247.666 619.528L246.658 618.464H249.514C250.214 618.464 250.737 618.315 251.082 618.016C251.428 617.708 251.6 617.288 251.6 616.756C251.6 616.215 251.428 615.795 251.082 615.496C250.737 615.197 250.214 615.048 249.514 615.048H246.658L247.666 613.97V619.528ZM255.693 623V613.2H257.961V621.152H262.875V623H255.693ZM264.142 623V613.2H268.594C269.658 613.2 270.596 613.405 271.408 613.816C272.22 614.217 272.855 614.782 273.312 615.51C273.77 616.238 273.998 617.101 273.998 618.1C273.998 619.089 273.77 619.953 273.312 620.69C272.855 621.418 272.22 621.987 271.408 622.398C270.596 622.799 269.658 623 268.594 623H264.142ZM266.41 621.138H268.482C269.136 621.138 269.7 621.017 270.176 620.774C270.662 620.522 271.035 620.167 271.296 619.71C271.567 619.253 271.702 618.716 271.702 618.1C271.702 617.475 271.567 616.938 271.296 616.49C271.035 616.033 270.662 615.683 270.176 615.44C269.7 615.188 269.136 615.062 268.482 615.062H266.41V621.138Z" fill="#343045"/>
<path d="M454 4469C409.181 4475.14 326.108 4526.83 280.072 4583.84C221.675 4656.15 130.896 4572.46 76.0438 4519.92C37.293 4483.63 -44.967 4447.71 -64 4594.4" stroke="url(#paint3_linear_13_78)" stroke-opacity="0.13" stroke-width="6"/>
</g>
<defs>
<linearGradient id="paint0_linear_13_78" x1="406.511" y1="98.0015" x2="191.555" y2="573.111" gradientUnits="userSpaceOnUse">
<stop stop-color="#343045"/>
<stop offset="0.276042" stop-color="#8176AF"/>
<stop offset="0.739583" stop-color="#C0B7E8"/>
<stop offset="1" stop-color="#343045"/>
</linearGradient>
<linearGradient id="paint1_linear_13_78" x1="422.102" y1="279.975" x2="-153.75" y2="586.359" gradientUnits="userSpaceOnUse">
<stop stop-color="#343045"/>
<stop offset="0.213542" stop-color="#C0B7E8"/>
<stop offset="0.71875" stop-color="#8176AF"/>
<stop offset="1" stop-color="#343045"/>
</linearGradient>
<linearGradient id="paint2_linear_13_78" x1="56" y1="111.5" x2="325.136" y2="617.784" gradientUnits="userSpaceOnUse">
<stop offset="0.0104167" stop-color="#343045"/>
<stop offset="0.229167" stop-color="#C0B7E8"/>
<stop offset="0.776042" stop-color="#8176AF"/>
<stop offset="1" stop-color="#343045"/>
</linearGradient>
<linearGradient id="paint3_linear_13_78" x1="454" y1="4469.34" x2="-64" y2="4469.34" gradientUnits="userSpaceOnUse">
<stop stop-color="#343045"/>
<stop offset="0.348958" stop-color="#C0B7E8"/>
<stop offset="0.6875" stop-color="#8176AF"/>
<stop offset="1" stop-color="#343045"/>
</linearGradient>
<clipPath id="clip0_13_78">
<path d="M0 0H390V5109H0V0Z" fill="white"/>
</clipPath>
</defs>
</svg>
